<svg xmlns="http://www.w3.org/2000/svg" viewBox="0 0 64 64">
  <defs>
    <linearGradient id="chrome" x1="0" y1="0" x2="0" y2="1">
      <stop offset="0" stop-color="#FFFFFF"/>
      <stop offset="55%" stop-color="#C4CDDC"/>
      <stop offset="100%" stop-color="#7E8BA3"/>
    </linearGradient>
  </defs>
  <rect width="64" height="64" rx="14" fill="#080B12"/>
  <g transform="translate(4 20) scale(0.875)" fill="url(#chrome)">
    <path d="M2 18c6-1 10-3 16-7 5-3.4 10-5.6 16-6.4 8-1 20 .4 28 5.4-7-2-15-2.6-22-1.6-7 1-13 3.4-19 6.2C16 17 9 18.6 2 18z"/>
    <path d="M14 19.4c5.6-.8 10-2.4 15.4-5 4.6-2.2 9.6-3.8 15-4.2-5 1.6-9.2 3.4-13.8 5.6-5 2.4-10.2 3.8-16.6 3.6z" opacity=".55"/>
  </g>
</svg>
